<svg width="48" height="49" viewBox="0 0 48 49" fill="none"
  xmlns="http://www.w3.org/2000/svg">
  <path d="M19.2195 17.1384L16.78 31.4539H20.6815L23.123 17.1384H19.2195Z" fill="white"/>
  <path d="M13.5087 17.1545L9.68753 26.9173L9.28012 25.4432C8.52651 23.667 6.38711 21.1162 3.87543 19.5086L7.36951 31.4469L11.4978 31.4399L17.642 17.1515L13.5087 17.1545Z" fill="white"/>
  <path d="M7.79897 18.179C7.57219 17.307 6.91491 17.0471 6.09909 17.016H0.0501735L0 17.301C4.70728 18.4429 7.82205 21.1944 9.11452 24.5029L7.79897 18.179Z" fill="white"/>
  <path d="M31.0303 19.8829C32.3068 19.8628 33.232 20.1418 33.9504 20.4308L34.3027 20.5964L34.8305 17.4937C34.0578 17.2037 32.8466 16.8926 31.3354 16.8926C27.4801 16.8926 24.7627 18.8343 24.7416 21.6169C24.7165 23.673 26.6773 24.821 28.1584 25.5064C29.6787 26.2088 30.1884 26.6553 30.1814 27.2825C30.1694 28.2408 28.9692 28.6803 27.8483 28.6803C26.2859 28.6803 25.4561 28.4646 24.1746 27.9308L23.6719 27.702L23.123 30.906C24.0361 31.3064 25.721 31.6506 27.47 31.6687C31.5712 31.6687 34.2364 29.75 34.2645 26.7768C34.2816 25.1501 33.241 23.9088 30.9862 22.8903C29.6215 22.226 28.7866 21.7845 28.7946 21.1142C28.7946 20.5191 29.5031 19.8829 31.0303 19.8829Z" fill="white"/>
  <path d="M44.843 17.1544H41.8286C40.8924 17.1544 40.196 17.4093 39.7845 18.3425L33.9915 31.4619H38.0887C38.0887 31.4619 38.757 29.6978 38.9085 29.3115C39.3571 29.3115 43.3378 29.3175 43.9048 29.3175C44.0212 29.8172 44.3804 31.4619 44.3804 31.4619H48L44.843 17.1544ZM40.0314 26.3813C40.3525 25.5595 41.5858 22.3805 41.5858 22.3805C41.5647 22.4196 41.9039 21.5526 42.1056 21.0138L42.3685 22.248C42.3685 22.248 43.1161 25.6659 43.2726 26.3813H40.0314Z" fill="white"/>
</svg>
