<svg width="13" height="13" viewBox="0 0 13 13" fill="none"
  xmlns="http://www.w3.org/2000/svg">
  <path d="M9.52604 1.61935C9.20859 1.51283 8.87471 1.46566 8.5403 1.46566C7.80364 1.46036 7.08871 1.70415 6.49991 2.15409C6.45221 2.11752 6.39392 2.0852 6.34092 2.05393C6.28792 2.0216 6.19253 1.94263 6.11303 1.90024L5.91164 1.81014C5.80565 1.75184 5.69489 1.70945 5.57776 1.67182C5.56716 1.66175 5.55126 1.65062 5.53006 1.64055H5.4988C5.18558 1.53403 4.8623 1.47573 4.52842 1.46566H4.47012C4.32173 1.46566 4.17387 1.47573 4.02495 1.49746H3.96135C3.80236 1.51813 3.6439 1.55523 3.49021 1.60822C1.51289 2.25532 0.808026 4.4017 1.40689 6.27779C1.74607 7.23651 2.29247 8.10619 3.00263 8.82112C4.03555 9.81747 5.16491 10.6972 6.37802 11.4498L6.51581 11.5351L6.6483 11.4551C7.85717 10.6972 8.98017 9.81747 10.0035 8.82642C10.7185 8.11149 11.2643 7.23651 11.5982 6.27779C12.187 4.4017 11.4822 2.25532 9.52604 1.61935Z" fill="#FF3535"/>
</svg>
